<?xml version="1.0" encoding="UTF-8" standalone="no"?>
<!-- Created with Inkscape (http://www.inkscape.org/) -->

<svg
   xmlns:dc="http://purl.org/dc/elements/1.1/"
   xmlns:cc="http://creativecommons.org/ns#"
   xmlns:rdf="http://www.w3.org/1999/02/22-rdf-syntax-ns#"
   xmlns:svg="http://www.w3.org/2000/svg"
   xmlns="http://www.w3.org/2000/svg"
   xmlns:sodipodi="http://sodipodi.sourceforge.net/DTD/sodipodi-0.dtd"
   xmlns:inkscape="http://www.inkscape.org/namespaces/inkscape"
   width="210mm"
   height="297mm"
   viewBox="0 0 210 297"
   version="1.1"
   id="svg8"
   inkscape:version="0.92.3 (2405546, 2018-03-11)"
   sodipodi:docname="logopresentacion.svg">
  <defs
     id="defs2">
    <inkscape:perspective
       sodipodi:type="inkscape:persp3d"
       inkscape:vp_x="0 : 148.5 : 1"
       inkscape:vp_y="0 : 1000 : 0"
       inkscape:vp_z="210 : 148.5 : 1"
       inkscape:persp3d-origin="105 : 99 : 1"
       id="perspective35" />
  </defs>
  <sodipodi:namedview
     id="base"
     pagecolor="#ffffff"
     bordercolor="#666666"
     borderopacity="1.0"
     inkscape:pageopacity="0.0"
     inkscape:pageshadow="2"
     inkscape:zoom="2.1586629"
     inkscape:cx="397.46145"
     inkscape:cy="513.79163"
     inkscape:document-units="mm"
     inkscape:current-layer="layer1"
     showgrid="false"
     inkscape:window-width="1920"
     inkscape:window-height="1001"
     inkscape:window-x="-9"
     inkscape:window-y="-9"
     inkscape:window-maximized="1"
     showguides="true"
     inkscape:guide-bbox="true" />
  <metadata
     id="metadata5">
    <rdf:RDF>
      <cc:Work
         rdf:about="">
        <dc:format>image/svg+xml</dc:format>
        <dc:type
           rdf:resource="http://purl.org/dc/dcmitype/StillImage" />
        <dc:title></dc:title>
      </cc:Work>
    </rdf:RDF>
  </metadata>
  <g
     inkscape:label="Layer 1"
     inkscape:groupmode="layer"
     id="layer1">
    <path
       style="fill:#1c2422;stroke:#000000;stroke-width:0.26458332px;stroke-linecap:butt;stroke-linejoin:miter;stroke-opacity:1"
       d="m 88.314332,124.5663 -24.960749,0.17363 -0.262001,48.46733 c -0.151463,1.21932 -0.184039,2.67631 -0.542084,3.48247 -1.273907,4.74708 -4.529021,5.40445 -8.134905,5.33714 -3.735393,-0.64361 -6.366478,-3.70188 -8.904883,-6.96391 l -7.380427,6.48643 -9.418545,8.20415 5.150588,6.14381 c 5.415783,4.93791 12.060036,7.52167 19.830314,7.9468 l 0.07338,-2.97967 0.625803,-0.91984 -0.03669,-1.32446 0.95653,-0.99374 0.367419,-1.58182 0.257865,-1.32446 0.331248,-1.69241 0.257347,1.36116 0.22066,1.39837 0.294555,1.80247 0.95653,0.99322 v 1.10381 l 2.93057,-0.23875 c 1.329232,-9.88021 4.284638,-19.76035 7.10706,-29.64056 5.105762,-13.56714 10.084961,-27.24858 20.453535,-36.05413 z m 4.429192,0.61133 -0.005,6.52467 c 2.057601,-0.80746 3.887761,-1.91861 6.379951,-2.14664 5.499075,-1.14962 10.232895,0.12405 14.786695,1.96784 6.48854,3.463 11.87549,8.54193 15.97938,15.50241 2.80867,0.24426 5.65496,0.42828 7.69152,1.90789 4.93149,6.00314 2.34846,9.17086 -1.01389,12.04423 3.88366,10.11319 5.94967,19.41791 6.97632,28.26132 h 1.55029 l 0.0594,-5.2467 h 2.92179 l 1.37097,-0.77515 h 2.26601 v 0.59635 h 1.60972 l 0.1788,5.30665 0.89452,0.1788 -0.1788,7.27397 1.49035,-0.0594 0.11937,-4.59094 1.19218,-0.29817 1.37149,-0.41755 h 1.13275 v 6.2606 l 0.95395,0.0594 v 3.10059 l 1.61023,1.01337 0.0594,1.61024 6.91637,-0.1788 -18.06607,-26.29452 1.60972,-1.01337 c 5.19963,-3.30788 10.13806,-6.99351 12.5212,-14.36967 1.51817,-5.99937 2.36121,-12.28171 -0.98806,-20.32227 -5.19422,-10.27101 -14.45242,-13.89591 -25.44857,-15.31896 z m 10.823606,5.99189 c -3.46242,-0.0301 -7.097665,0.92986 -10.523366,3.4432 l -0.0961,66.77215 1.34669,0.19223 1.732181,1.82832 h 2.02054 l 0.19223,-0.8661 2.020545,-0.0961 V 198.306 l 2.30891,-0.0961 v -0.38499 l 1.15445,0.0961 v -3.46335 l 1.05833,0.0961 2.69441,-3.55999 2.69389,3.36775 1.25057,0.19224 -0.0961,3.27112 0.7431,-0.37156 h 1.07901 v -1.26452 l 2.15904,-0.0305 0.031,0.74001 1.38752,-0.031 v 0.58601 l -0.37001,0.49351 0.031,4.25607 1.51102,0.21601 0.031,1.11001 1.35703,0.031 -0.062,-22.66787 5.4591,0.0925 5.33508,8.01863 h 1.35702 l 0.89452,-1.82004 1.11001,-0.0305 0.031,0.58601 h 0.77101 l 0.0925,0.89452 1.48053,-0.031 0.67851,-0.15399 0.0305,-1.04903 0.77049,0.0269 c -0.75426,-7.93044 -1.73415,-15.59128 -3.88503,-22.29373 -0.20226,-0.92866 -0.53707,-1.85894 -1.14153,-2.86804 l -12.9527,-0.031 0.0305,-15.17323 6.47661,-0.0925 c -4.07645,-5.86454 -7.93571,-11.94085 -15.45126,-14.52625 -2.08476,-0.76727 -4.37268,-1.25118 -6.74171,-1.27175 z m 33.66512,56.25651 c 0.0305,0.32067 0.0632,0.63863 0.093,0.96015 l 0.031,-0.95602 z m -48.420788,-49.1846 c -13.891473,18.55744 -15.902108,41.74391 -20.778577,63.81368 h 0.63872 l -0.01344,-0.49248 h 0.173115 v -0.27957 h 0.253216 l -0.01344,0.29249 0.545703,0.0134 -0.01344,0.23978 0.559138,0.0398 0.01344,-5.84357 3.420977,0.0269 v -0.54622 l 1.424205,-0.0129 v -0.78548 h 2.795177 l 0.01344,1.29139 0.532267,0.0264 v 0.27957 h 0.439248 v 0.27957 h 0.266653 l 0.02636,0.43924 0.452683,-0.0134 -0.0801,-13.12478 8.119915,-0.0796 c 0.57326,-1.6225 0.91879,-3.62501 1.11828,-5.87045 z"
       id="path195"
       inkscape:connector-curvature="0" />
  </g>
</svg>
